# xmcd
# 
# Track frame offsets:
#     150
#     16447
#     36183
#     47739
#     62554
#     74379
#     84919
#     96058
#     109840
#     130977
#     142347
#     152866
#     164727
#     177883
#     197182
# 
# Disc length: 2789
# 
# Revision: 1
# Processed by: cddbd v1.5.2PL0 Copyright (c) Steve Scherf et al.
# Submitted via: fre:ac v1.1beta1pre5
# 
DISCID=d80ae30f
DTITLE=Various Artist - The Ultimate Country Collection - CD03
DYEAR=2009
DGENRE=Country
TTITLE0=The Charlie Daniels Band - The Devil Went Down To Georgia
TTITLE1=Clint Black - Like The Rain
TTITLE2=Dolly Parton - Why'd You Come In Here Lookin' Like That
TTITLE3=George Jones - He Stopped Loving Her Today
TTITLE4=Hank Snow - Ninety Miles An Hour (Down A Dead End Street)
TTITLE5=Jerry Ree - When You're Hot, You're Hot
TTITLE6=Alan Jackson - Chattahoochee
TTITLE7=Johnny Cash - It Ain't Me Babe
TTITLE8=Marty Robbins - El Paso
TTITLE9=Johnny Horton - The Battle Of New Orleans
TTITLE10=The Statler Brothers - Flowers On The Wall
TTITLE11=Johnny Paycheck - Take This Job And Shove It
TTITLE12=Lacy J. Dalton - Dream Baby (How Long Must I Dream)
TTITLE13=Ronnie Milsap - Lost In The Fifties Tonight (In The Still Of The Night)
TTITLE14=Tammy Wynette - Stand By Your Man
EXTD=
EXTT0=
EXTT1=
EXTT2=
EXTT3=
EXTT4=
EXTT5=
EXTT6=
EXTT7=
EXTT8=
EXTT9=
EXTT10=
EXTT11=
EXTT12=
EXTT13=
EXTT14=
PLAYORDER=
